<?xml version="1.0" ?><svg id="Layer_1" style="enable-background:new 0 0 512 512;" version="1.1" viewBox="0 0 512 512" xml:space="preserve" xmlns="http://www.w3.org/2000/svg" xmlns:xlink="http://www.w3.org/1999/xlink"><style type="text/css">
	.st0{fill:#F26136;}
	.st1{opacity:0.1;}
	.st2{fill:#F97658;}
	.st3{fill:#FFFFFF;}
</style><g><g id="XMLID_3271_"><path class="st0" d="M463.2,512H48.8C21.8,512,0,490.2,0,463.2V48.8C0,21.8,21.8,0,48.8,0h414.5    C490.2,0,512,21.8,512,48.8v414.5C512,490.2,490.2,512,463.2,512z" id="XMLID_3274_"/><path class="st1" d="M472,40H40v432l40,40h383.2c26.9,0,48.8-21.8,48.8-48.8V80L472,40z" id="XMLID_3273_"/><rect class="st2" height="432" id="XMLID_3272_" transform="matrix(-1.836970e-016 1 -1 -1.836970e-016 511.5 0.5)" width="432" x="39.5" y="40"/></g><g id="XMLID_1970_"><g id="XMLID_1129_"><g id="XMLID_1135_"><g id="XMLID_1145_"><g id="XMLID_1148_"><polygon class="st3" id="XMLID_1149_" points="370.3,155.8 300.6,155.8 300.6,86.1 310.8,86.1 310.8,145.7 370.3,145.7               "/></g><g id="XMLID_1146_"><polygon class="st3" id="XMLID_1147_" points="375.4,431 103.3,431 103.3,81 310.6,81 375.4,148.7 375.4,256 365.2,256         365.2,152.8 306.3,91.2 113.5,91.2 113.5,420.8 365.2,420.8 365.2,396.8 375.4,396.8       "/></g></g><g id="XMLID_1136_"><g id="XMLID_1143_"><rect class="st3" height="10.2" id="XMLID_1144_" width="138" x="145.9" y="154.8"/></g><g id="XMLID_1141_"><rect class="st3" height="10.2" id="XMLID_1142_" width="90.9" x="145.9" y="184.8"/></g><g id="XMLID_1139_"><rect class="st3" height="10.2" id="XMLID_1140_" width="186.9" x="145.9" y="214.7"/></g><g id="XMLID_1137_"><rect class="st3" height="10.2" id="XMLID_1138_" width="186.9" x="145.9" y="244.7"/></g></g></g><g id="XMLID_1130_"><path class="st3" d="M370.3,409.3L315.5,330h23.4v-79.1h62.9V330h23.4L370.3,409.3z M334.9,340.2l35.5,51.3      l35.5-51.3h-14.2v-79.1h-42.5v79.1H334.9z" id="XMLID_1131_"/></g></g><path class="st3" d="M274.2,306.6H86.8v80.5h187.4l-39.9-40.2L274.2,306.6z M156.7,334h-10.8v30.3H140V334h-10.6    v-4.7h27.3V334z M182.2,364.3l-7.6-13.1l-7.6,13.1h-6.9l11-17.6l-10.8-17.4h6.9l7.3,12.9l7.4-12.9h6.9l-10.8,17.4l11.2,17.6H182.2    z M219.8,334h-10.8v30.3h-5.8V334h-10.6v-4.7h27.3V334z" id="XMLID_1966_"/></g></g></svg>