<?xml version="1.0" encoding="UTF-8" standalone="no"?>
<!-- Created with Inkscape (http://www.inkscape.org/) -->

<svg
   width="64pt"
   height="64pt"
   viewBox="0 0 22.577778 22.577778"
   version="1.1"
   id="svg831"
   inkscape:version="1.1.1 (3bf5ae0d25, 2021-09-20)"
   sodipodi:docname="Export - Unblash - 64px.svg"
   inkscape:export-filename="C:\Users\User\Desktop\CARLOS PROJECT\3. MARET 1\EXPORT\FILEDLINE\14 - Cloud Folder.png"
   inkscape:export-xdpi="576"
   inkscape:export-ydpi="576"
   xmlns:inkscape="http://www.inkscape.org/namespaces/inkscape"
   xmlns:sodipodi="http://sodipodi.sourceforge.net/DTD/sodipodi-0.dtd"
   xmlns="http://www.w3.org/2000/svg"
   xmlns:svg="http://www.w3.org/2000/svg"
   xmlns:rdf="http://www.w3.org/1999/02/22-rdf-syntax-ns#"
   xmlns:cc="http://creativecommons.org/ns#"
   xmlns:dc="http://purl.org/dc/elements/1.1/">
  <defs
     id="defs825">
    <pattern
       id="EMFhbasepattern"
       patternUnits="userSpaceOnUse"
       width="6"
       height="6"
       x="0"
       y="0" />
    <pattern
       id="EMFhbasepattern-9"
       patternUnits="userSpaceOnUse"
       width="6"
       height="6"
       x="0"
       y="0" />
    <pattern
       id="EMFhbasepattern-0"
       patternUnits="userSpaceOnUse"
       width="6"
       height="6"
       x="0"
       y="0" />
    <pattern
       id="EMFhbasepattern-7"
       patternUnits="userSpaceOnUse"
       width="6"
       height="6"
       x="0"
       y="0" />
    <pattern
       id="EMFhbasepattern-2"
       patternUnits="userSpaceOnUse"
       width="6"
       height="6"
       x="0"
       y="0" />
    <pattern
       id="EMFhbasepattern-98"
       patternUnits="userSpaceOnUse"
       width="6"
       height="6"
       x="0"
       y="0" />
    <pattern
       id="EMFhbasepattern-6"
       patternUnits="userSpaceOnUse"
       width="6"
       height="6"
       x="0"
       y="0" />
    <pattern
       id="EMFhbasepattern-01"
       patternUnits="userSpaceOnUse"
       width="6"
       height="6"
       x="0"
       y="0" />
    <pattern
       id="EMFhbasepattern-07"
       patternUnits="userSpaceOnUse"
       width="6"
       height="6"
       x="0"
       y="0" />
    <pattern
       id="EMFhbasepattern-8"
       patternUnits="userSpaceOnUse"
       width="6"
       height="6"
       x="0"
       y="0" />
    <pattern
       id="EMFhbasepattern-4"
       patternUnits="userSpaceOnUse"
       width="6"
       height="6"
       x="0"
       y="0" />
    <pattern
       id="EMFhbasepattern-40"
       patternUnits="userSpaceOnUse"
       width="6"
       height="6"
       x="0"
       y="0" />
    <pattern
       id="EMFhbasepattern-08"
       patternUnits="userSpaceOnUse"
       width="6"
       height="6"
       x="0"
       y="0" />
    <pattern
       id="EMFhbasepattern-04"
       patternUnits="userSpaceOnUse"
       width="6"
       height="6"
       x="0"
       y="0" />
    <pattern
       id="EMFhbasepattern-014"
       patternUnits="userSpaceOnUse"
       width="6"
       height="6"
       x="0"
       y="0" />
    <pattern
       id="EMFhbasepattern-27"
       patternUnits="userSpaceOnUse"
       width="6"
       height="6"
       x="0"
       y="0" />
    <pattern
       id="EMFhbasepattern-09"
       patternUnits="userSpaceOnUse"
       width="6"
       height="6"
       x="0"
       y="0" />
    <pattern
       id="EMFhbasepattern-5"
       patternUnits="userSpaceOnUse"
       width="6"
       height="6"
       x="0"
       y="0" />
    <pattern
       id="EMFhbasepattern-018"
       patternUnits="userSpaceOnUse"
       width="6"
       height="6"
       x="0"
       y="0" />
  </defs>
  <sodipodi:namedview
     id="base"
     pagecolor="#ffffff"
     bordercolor="#666666"
     borderopacity="1.0"
     inkscape:pageopacity="0.0"
     inkscape:pageshadow="2"
     inkscape:zoom="9.1757812"
     inkscape:cx="42.612175"
     inkscape:cy="42.666667"
     inkscape:document-units="pt"
     inkscape:current-layer="layer1"
     showgrid="false"
     units="pt"
     inkscape:window-width="1920"
     inkscape:window-height="1001"
     inkscape:window-x="-9"
     inkscape:window-y="41"
     inkscape:window-maximized="1"
     inkscape:pagecheckerboard="true"
     inkscape:showpageshadow="false"
     inkscape:object-paths="true"
     inkscape:snap-intersection-paths="true"
     inkscape:snap-smooth-nodes="true"
     inkscape:snap-midpoints="true"
     showguides="true"
     inkscape:snap-bbox="true"
     inkscape:bbox-nodes="true"
     inkscape:snap-nodes="false"
     inkscape:snap-global="true">
    <inkscape:grid
       type="xygrid"
       id="grid1378" />
    <sodipodi:guide
       position="0.97013831,21.607643"
       orientation="78.000048,0"
       id="guide1380"
       inkscape:locked="false" />
    <sodipodi:guide
       position="0.97013831,0.97013129"
       orientation="0,78.000005"
       id="guide1382"
       inkscape:locked="false" />
    <sodipodi:guide
       position="21.607639,0.97013129"
       orientation="-78.000048,0"
       id="guide1384"
       inkscape:locked="false" />
    <sodipodi:guide
       position="21.607639,21.607643"
       orientation="0,-78.000005"
       id="guide1386"
       inkscape:locked="false" />
  </sodipodi:namedview>
  <metadata
     id="metadata828">
    <rdf:RDF>
      <cc:Work
         rdf:about="">
        <dc:format>image/svg+xml</dc:format>
        <dc:type
           rdf:resource="http://purl.org/dc/dcmitype/StillImage" />
      </cc:Work>
    </rdf:RDF>
  </metadata>
  <g
     inkscape:label="Icon"
     inkscape:groupmode="layer"
     id="layer1"
     transform="translate(0,-274.42223)">
    <g
       id="g21614"
       style="display:inline;stroke-width:0.799274"
       transform="matrix(1.2511357,0,0,1.2511357,-37.4583,-115.00795)">
      <g
         id="g17178"
         style="stroke-width:0.799274">
        <g
           id="g16411"
           style="stroke-width:0.799274">
          <path
             style="color:#000000;fill:#e59f2e;stroke-width:0.799274;stroke-linecap:round;stroke-linejoin:round;-inkscape-stroke:none"
             d="m 34.683594,315.75195 a 0.26461046,0.26461046 0 0 0 -0.251953,0.3418 l 1.214843,3.95117 a 0.26461046,0.26461046 0 0 0 0.197266,0.18164 l 8.736328,1.89844 a 0.26461046,0.26461046 0 0 0 0.320313,-0.25781 v -4.36524 c 0,-0.96348 -0.786528,-1.75 -1.75,-1.75 z"
             id="path543197" />
          <path
             style="color:#000000;fill:#fcba4c;stroke-width:0.799274;stroke-linecap:round;stroke-linejoin:round;-inkscape-stroke:none"
             d="m 32.476562,314.99609 c -0.968942,0 -1.761718,0.79083 -1.761718,1.75977 v 1.08594 5.34765 c 0,1.01975 0.833774,1.85352 1.853515,1.85352 h 6.083985 a 0.26461046,0.26461046 0 0 0 0.162109,-0.0566 l 4.806641,-3.70313 a 0.26461046,0.26461046 0 0 0 0.103515,-0.20898 v -2.64649 c 0,-0.8508 -0.723592,-1.43554 -1.546875,-1.43554 H 36.625 c -0.252177,0 -0.477654,-0.15296 -0.572266,-0.38672 l -0.361328,-0.89453 c -0.174908,-0.43214 -0.59632,-0.71485 -1.0625,-0.71485 z"
             id="path543005" />
          <path
             id="path41709"
             style="fill:#ca7d02;fill-opacity:1;stroke-width:3.02088;stroke-linecap:round;stroke-linejoin:round"
             d="m 142.13867,152.61914 c -4.56997,1.46445 -7.98828,5.35175 -7.98828,10.01758 0,2.36761 0.20521,5.01766 1.88281,7.3164 0.009,0.012 0.0185,0.0232 0.0274,0.0352 h 10.02734 c 0.22241,-8e-4 0.43821,-0.0757 0.61328,-0.21289 l 18.16602,-13.99609 c 0.24521,-0.18848 0.38942,-0.4798 0.39062,-0.78907 v -7.42773 c -1.70752,-0.0787 -3.42478,0.3833 -5.0039,1.18945 -5.86093,-6.6432 -16.42449,-4.15186 -18.11524,3.86719 z"
             transform="matrix(0.26458334,0,0,0.26458334,0,280.06666)"
             sodipodi:nodetypes="csscccccccc" />
          <path
             style="color:#000000;fill:#ececec;stroke-width:0.799274;stroke-linecap:round;stroke-linejoin:round;-inkscape-stroke:none"
             d="m 44.881123,325.33535 c 1.837664,0 2.023092,-1.39006 2.023092,-2.40244 0,-1.15379 -0.74956,-1.78574 -1.886876,-1.90224 -0.22659,-1.28626 -1.919698,-1.38056 -2.82562,-0.59341 -1.19906,-1.98518 -3.835334,-1.52377 -3.899604,0.56886 -1.166532,0.23056 -2.033468,0.78371 -2.033468,1.85445 0,0.59333 0.05575,1.1585 0.396359,1.62522 0.340601,0.46671 0.910558,0.79234 1.673799,0.84181 z"
             id="path544057"
             sodipodi:nodetypes="ccccccscc" />
        </g>
        <path
           id="rect974-4-5-1"
           style="color:#000000;display:inline;fill:#000000;stroke-width:0.799274;stroke-linecap:round;stroke-linejoin:round;-inkscape-stroke:none"
           d="m 32.47657,314.99631 c -0.968941,0 -1.761648,0.79064 -1.761648,1.75958 v 6.43372 c 0,1.01975 0.833892,1.85312 1.853634,1.85312 h 2.9099 c 0.146124,-5.3e-4 0.264121,-0.11949 0.263549,-0.26562 -5.29e-4,-0.14532 -0.118229,-0.26298 -0.263549,-0.26355 h -2.9099 c -0.733762,0 -1.324468,-0.59018 -1.324468,-1.32395 v -0.262 h 3.96875 c 0.146127,5.3e-4 0.265047,-0.11742 0.265618,-0.26355 5.29e-4,-0.14693 -0.118684,-0.26619 -0.265618,-0.26562 h -3.96875 v -5.64255 c 0,-0.68296 0.549527,-1.23248 1.232482,-1.23248 h 2.152325 c 0.252172,0 0.477443,0.15278 0.572058,0.38654 l 0.361736,0.89452 c 0.174908,0.43214 0.596292,0.71675 1.062466,0.71675 h 5.552634 c 0.59233,0 1.01751,0.3416 1.017508,0.90641 v 0.52916 c 2.64e-4,0.14552 0.11803,0.2635 0.263551,0.26407 0.146328,5.3e-4 0.26533,-0.11774 0.265615,-0.26407 v -0.52916 c 0,-0.8508 -0.723392,-1.43557 -1.546674,-1.43557 h -5.552634 c -0.252177,0 -0.477962,-0.15278 -0.572574,-0.38654 l -0.36122,-0.89452 c -0.174908,-0.43214 -0.596286,-0.71469 -1.062466,-0.71469 z m 4.324284,0.75551 c -0.145317,5.3e-4 -0.262982,0.11823 -0.263548,0.26355 -7.94e-4,0.14633 0.117221,0.26557 0.263548,0.26613 h 6.349485 c 0.677489,0 1.222663,0.5431 1.222663,1.2206 v 1.71876 c -5.29e-4,0.14613 0.117425,0.26505 0.263552,0.26562 0.146325,-2.7e-4 0.264636,-0.11929 0.264064,-0.26562 v -1.71876 c 0,-0.96348 -0.786807,-1.75028 -1.750279,-1.75028 z m 3.152265,3.16829 c -0.93503,0.12687 -1.743956,0.87305 -1.841749,1.99213 -0.56909,0.0624 -1.090028,0.26731 -1.433504,0.65784 -0.390287,0.44376 -0.618096,1.02203 -0.662493,1.60559 -0.0444,0.58356 0.09693,1.18232 0.476975,1.64072 0.380044,0.45841 0.996365,0.75603 1.814359,0.75603 h 7.406267 c 0.54593,0 0.973873,-0.34801 1.214911,-0.80305 0.651764,-1.69246 0.222173,-3.63395 -1.798855,-3.86695 -0.359658,-1.30341 -2.064932,-1.57589 -2.90835,-0.68781 -0.354216,-0.79455 -1.215792,-1.38196 -2.267561,-1.2945 z m 1.982306,1.73219 c 0.07088,0.21761 0.365905,0.24871 0.480592,0.0506 0.467204,-0.82119 2.076225,-0.67277 2.265495,0.42426 0.02241,0.12696 0.133074,0.21929 0.261998,0.21859 1.778648,0.0924 2.043038,2.07145 1.517221,3.17759 -0.178662,0.33728 -0.413554,0.51986 -0.747757,0.51986 h -7.406267 c -0.694989,0 -1.130115,-0.23191 -1.406115,-0.56482 -0.276003,-0.33291 -0.393473,-0.7899 -0.357603,-1.26142 0.03587,-0.47153 0.22556,-0.94952 0.531236,-1.29708 0.305673,-0.34755 0.715089,-0.56844 1.232482,-0.56844 0.146118,-5.3e-4 0.264107,-0.1195 0.263549,-0.26562 0,-0.9889 0.678105,-1.53556 1.453141,-1.64072 0.968243,-0.10831 1.716337,0.63829 1.912028,1.20716 z"
           sodipodi:nodetypes="sccscscssccscccssccssscscsssccsscccsscccsscccssssscccccccccssssccscc" />
      </g>
    </g>
  </g>
</svg>
